# xmcd CD database file
#
# Track frame offsets:
#	150
#	30623
#	56321
#	77187
#	101570
#	120612
#	139689
#	165965
#	183309
#
# Disc length: 3000 seconds
#
# Revision: 0
# Processed by: cddbd v1.5PL3 Copyright (c) Steve Scherf et al.
# Submitted via: CDex 1.50beta10
#
DISCID=680bb609
DTITLE=Robert Pete Williams - Poor Bob's Blues - CD-B
DYEAR=2004
DGENRE=Blues
TTITLE0=Things All Wrong With Me
TTITLE1=Matchbox Blues
TTITLE2=Sad News From Korea
TTITLE3=What Shape I'm In
TTITLE4=Poor Boy, Long Way From Home
TTITLE5=Out All Night Long
TTITLE6=Crying Won't Make Me Stay
TTITLE7=All Out And Down
TTITLE8=Tom And Old Master
EXTD=YEAR: 2004
EXTT0=
EXTT1=
EXTT2=
EXTT3=
EXTT4=
EXTT5=
EXTT6=
EXTT7=
EXTT8=
PLAYORDER=
